<svg version="1.1" xmlns="http://www.w3.org/2000/svg" xmlns:xlink="http://www.w3.org/1999/xlink" width="446.19159" height="442.02864" viewBox="0,0,446.19159,442.02864"><g transform="translate(-14.82664,41.01432)"><g data-paper-data="{&quot;isPaintingLayer&quot;:true}" fill-rule="nonzero" stroke-linejoin="miter" stroke-miterlimit="10" stroke-dasharray="" stroke-dashoffset="0" style="mix-blend-mode: normal"><path d="M431.39161,69.5c61,105.6551 24.76349,240.89161 -80.89161,301.89161c-105.6551,61 -240.89161,24.76349 -301.89161,-80.89161c-61,-105.6551 -24.76349,-240.89161 80.89161,-301.89161c105.6551,-61 240.89161,-24.76349 301.89161,80.89161z" fill="#ffd469" stroke="none" stroke-width="1" stroke-linecap="butt"/><path d="M350.60981,370.98181c-51.0089,29.45 -108.89126,36.19481 -162.03586,23.34566c40.61448,1.14634 81.92511,-8.50155 119.68382,-30.30155c108.42638,-62.6 145.57796,-201.25158 82.97796,-309.67796c-21.8,-37.75871 -52.80211,-66.85594 -88.49845,-86.08382c52.39916,15.358 99.20434,50.22697 128.65434,101.23586c61,105.6551 24.76349,240.89161 -80.78181,301.48181z" fill="#ffb636" stroke="none" stroke-width="1" stroke-linecap="butt"/><path d="M401.20548,154.01608c0.35,0.60622 0.39019,1.27583 0.43038,1.94545l-0.23827,4.98731c-0.66936,11.24064 -2.02532,21.49205 -3.99468,30.48102c-1.90596,9.29878 -4.27532,17.59493 -6.84468,25.54468c-5.27532,15.86288 -12.10064,29.04109 -19.38935,41.21666c-2.09449,3.17224 -4.30237,5.94808 -6.49686,8.94711c-23.15448,-2.10474 -33.25704,24.39711 -53.69524,36.19711c-20.3516,11.75 -48.40416,7.16154 -58.20864,28.17968c-3.69449,0.40096 -7.28897,0.97513 -11.13346,1.11628c-14.22532,0.36103 -29.10064,-0.40378 -45.33935,-3.73006c-8.25596,-1.69974 -16.62532,-3.79589 -25.49468,-6.75807c-8.85596,-2.73897 -18.27532,-6.65378 -28.34468,-11.69442l-4.38827,-2.2007c-1.93923,-0.95885 -2.84282,-3.32391 -1.97058,-5.21314c0.31962,-0.64641 0.68923,-1.20622 1.20885,-1.50622c4.30333,-2.94641 8.52006,-5.84282 12.87339,-8.70263c1.32583,-0.30359 5.15333,-1.47417 10.72628,-3.42154c6.87199,-2.69737 17.30185,-5.83231 28.81377,-11.09308c11.46192,-5.34737 25.29249,-10.79212 39.37569,-17.9993c14.2332,-6.94737 28.96903,-15.22417 43.66826,-23.36436c14.53583,-8.62321 28.98506,-17.19641 42.11826,-26.04904c13.2466,-8.45622 24.91377,-17.84808 35.27569,-25.1007c10.22532,-7.28923 18.10519,-14.8409 24.01377,-19.40692c4.64615,-3.95263 7.31384,-6.53205 8.32628,-7.57846c4.48013,-2.24019 8.96025,-4.48038 13.54038,-6.54737c2.07846,-1.2 4.4641,-0.26795 5.16769,1.7507z" fill="#2b3b47" stroke="none" stroke-width="1" stroke-linecap="butt"/><path d="M160.69586,289.6412c-5.57295,1.94737 -9.45045,3.03135 -10.72628,3.42154c6.07199,-4.08301 12.19397,-8.07942 18.26596,-12.16244l31.68935,-19.91244c21.16403,-13.14282 42.72807,-25.59282 64.0921,-38.38923c21.76403,-12.10359 43.32807,-24.55359 65.2921,-36.31077l33.08935,-17.48756c6.57199,-3.21699 13.18057,-6.57058 19.83916,-9.83756c-1.01244,1.04641 -3.85333,3.72583 -8.32628,7.57846c-5.77199,4.60263 -13.70185,12.06769 -24.01377,19.40692c-10.36192,7.25263 -21.99249,16.50788 -35.27569,25.1007c-13.1332,8.85263 -27.71903,17.38923 -42.11826,26.04904c-14.78583,8.19019 -29.43506,16.41699 -43.66826,23.36436c-13.9966,7.15718 -27.91377,12.65192 -39.37569,17.9993c-10.8923,5.13397 -21.91858,8.0359 -28.76377,11.17968z" fill="#ffffff" stroke="none" stroke-width="1" stroke-linecap="butt"/><path d="M364.64883,267.49811c-13.65974,18.74064 -29.68287,33.18775 -47.99261,43.87436c-0.25981,0.15 -0.55622,0.4366 -0.81603,0.5866l-0.0866,0.05l-0.0866,0.05c-0.25981,0.15 -0.65622,0.2634 -0.91603,0.4134c-18.40974,10.5134 -38.93287,17.16628 -61.99261,19.62564c0.0866,-0.05 0.0366,-0.1366 0.12321,-0.1866c-0.0866,0.05 -0.1366,-0.0366 -0.22321,0.0134c9.71788,-20.96814 31.09364,-28.34423 52.80864,-37.53275l0.0866,-0.05l0.0866,-0.05c18.81499,-14.21147 35.80416,-28.98538 58.90864,-26.96725c-0.0366,0.1366 -0.0366,0.1366 -0.12321,0.1866c0,0 0,0 0.22321,-0.0134z" fill="#ff473e" stroke="none" stroke-width="1" stroke-linecap="butt"/><path d="M84.8449,155.26349c-5.36936,3.1 -11.38872,5.07417 -17.57506,5.7591c-4.2275,0.47776 -7.94974,-2.56936 -8.3775,-6.71025c-0.47776,-4.2275 2.56936,-7.94974 6.71025,-8.3775c8.6782,-0.96891 16.45903,-5.69212 21.53724,-12.89641c5.0782,-7.20429 6.82436,-16.17987 4.70282,-24.65448c-0.96077,-4.0641 1.61314,-8.20596 5.67724,-9.16673c4.0641,-0.96077 8.15596,1.52654 9.16673,5.67724c3.04571,12.67532 0.45148,26.18198 -7.10422,36.89512c-3.97917,6.10788 -8.67532,9.97391 -14.7375,13.47391z" fill="#f2a74e" stroke="none" stroke-width="1" stroke-linecap="butt"/><path d="M293.55702,34.76349c-5.71577,3.3 -12.21814,5.43756 -19.0375,6.02609c-13.1057,1.10026 -26.04993,-3.3198 -35.50422,-12.29512c-3.03923,-2.8641 -3.19737,-7.73801 -0.33327,-10.77724c2.9507,-3.08923 7.73801,-3.19737 10.77724,-0.33327c6.31506,5.93801 15.01122,9.00019 23.70282,8.25448c8.7782,-0.79571 16.75903,-5.1725 21.93724,-12.20359c2.4409,-3.37224 7.23801,-4.0634 10.66025,-1.5359c3.42224,2.5275 4.0634,7.23801 1.5359,10.66025c-2.98013,4.83827 -8.5423,9.20429 -13.73846,12.20429z" fill="#f2a74e" stroke="none" stroke-width="1" stroke-linecap="butt"/><path d="M72.94555,240.65321l-6.61474,46.54294c-3.23705,13.99327 -17.27647,22.67628 -31.35634,19.48923c-13.99327,-3.23705 -22.67628,-17.27647 -19.48923,-31.35634c1.25429,-5.2275 3.90141,-9.64256 7.54493,-13.13179l37.20319,-29.56218c3.22391,-3.01603 8.21122,-2.77776 11.17724,0.35955c1.63301,1.82846 2.26699,4.92654 1.53494,7.65859z" fill="#00beea" stroke="none" stroke-width="1" stroke-linecap="butt"/><path d="M377.15348,64.5568c-1.23397,-4.13731 1.05333,-8.57558 5.27724,-9.85955l44.20319,-17.43782c4.84352,-1.41077 9.99064,-1.49571 15.14493,0.03179c13.78705,4.27987 21.60404,18.81929 17.41077,32.55634c-4.27987,13.78705 -18.81929,21.60404 -32.55634,17.41077l-43.61474,-17.54294c-2.73205,-0.73205 -5.09808,-2.83013 -5.86506,-5.15859z" fill="#00beea" stroke="none" stroke-width="1" stroke-linecap="butt"/><path d="M103.75071,185.96344l56.20354,-10.87806l-35.71207,44.35186" fill="none" stroke="#2b3b47" stroke-width="11.5" stroke-linecap="round"/><path d="M335.48631,100.32588l-56.20353,10.87806l35.71207,-44.35186" data-paper-data="{&quot;index&quot;:null}" fill="none" stroke="#2b3b47" stroke-width="11.5" stroke-linecap="round"/></g></g></svg>