<svg version="1.1" xmlns="http://www.w3.org/2000/svg" xmlns:xlink="http://www.w3.org/1999/xlink" width="506" height="506" viewBox="0,0,506,506"><g transform="translate(12.666,73)"><g data-paper-data="{&quot;isPaintingLayer&quot;:true}" fill-rule="nonzero" stroke-linecap="butt" stroke-linejoin="miter" stroke-miterlimit="10" stroke-dasharray="" stroke-dashoffset="0" style="mix-blend-mode: normal"><path d="M493.334,403.334c0,16.316 -13.35,29.666 -29.666,29.666h-449.635c-14.684,0 -26.699,-12.015 -26.699,-26.699v-452.602c0,-14.684 12.015,-26.699 26.699,-26.699h449.635c16.317,0 29.666,13.35 29.666,29.666z" fill="#e03dff" stroke="none" stroke-width="1"/><path d="M493.334,383.249v20.085c0,16.316 -13.35,29.666 -29.666,29.666h-449.635c-14.684,0 -26.699,-12.015 -26.699,-26.699v-20.085c0,14.684 12.015,26.699 26.699,26.699h449.635c16.317,0 29.666,-13.35 29.666,-29.666z" fill="#b82ad4" stroke="none" stroke-width="1"/><path d="M230,374v-317.65607h20v317.65608z" fill="#ffffff" stroke="none" stroke-width="1"/><path d="M140,355.23807c0,-18.73859 44.77153,-33.92923 100,-33.92923c55.22848,0 100,15.19064 100,33.92923c0,18.73859 -44.77152,16.1939 -100,16.1939c-55.22847,0 -100,2.5447 -100,-16.1939z" fill="#ffffff" stroke="none" stroke-width="1"/><path d="M79,24c0,-13.80712 6.71573,-25 15,-25c8.28427,0 15,11.19288 15,25c0,13.80712 -6.71573,25 -15,25c-8.28427,0 -15,-11.19288 -15,-25z" fill="#ffffff" stroke="none" stroke-width="1"/><path d="M119,44c0,-13.80712 6.71573,-25 15,-25c8.28427,0 15,11.19288 15,25c0,13.80712 -6.71573,25 -15,25c-8.28427,0 -15,-11.19288 -15,-25z" fill="#ffffff" stroke="none" stroke-width="1"/><path d="M159,64c0,-13.80712 6.71573,-25 15,-25c8.28427,0 15,11.19288 15,25c0,13.80712 -6.71573,25 -15,25c-8.28427,0 -15,-11.19288 -15,-25z" fill="#ffffff" stroke="none" stroke-width="1"/><path d="M194.2251,84c0,-13.80712 6.71573,-25 15,-25c8.28427,0 15,11.19288 15,25c0,13.80712 -6.71573,25 -15,25c-8.28427,0 -15,-11.19288 -15,-25z" fill="#ffffff" stroke="none" stroke-width="1"/><path d="M225,47.59738c0,-14.27282 6.71573,-25.84324 15,-25.84324c8.28427,0 15,11.57042 15,25.84324c0,14.27282 -6.71573,25.84324 -15,25.84324c-8.28427,0 -15,-11.57041 -15,-25.84324z" fill="#ffffff" stroke="none" stroke-width="1"/><path d="M253.72851,84c0,-13.80712 6.71573,-25 15,-25c8.28427,0 15,11.19288 15,25c0,13.80712 -6.71573,25 -15,25c-8.28427,0 -15,-11.19288 -15,-25z" fill="#ffffff" stroke="none" stroke-width="1"/><path d="M291,64c0,-13.80712 6.71573,-25 15,-25c8.28427,0 15,11.19288 15,25c0,13.80712 -6.71573,25 -15,25c-8.28427,0 -15,-11.19288 -15,-25z" fill="#ffffff" stroke="none" stroke-width="1"/><path d="M331,44c0,-13.80712 6.71573,-25 15,-25c8.28427,0 15,11.19288 15,25c0,13.80712 -6.71573,25 -15,25c-8.28427,0 -15,-11.19288 -15,-25z" fill="#ffffff" stroke="none" stroke-width="1"/><path d="M371,24c0,-13.80712 6.71573,-25 15,-25c8.28427,0 15,11.19288 15,25c0,13.80712 -6.71573,25 -15,25c-8.28427,0 -15,-11.19288 -15,-25z" fill="#ffffff" stroke="none" stroke-width="1"/><path d="M386.69762,41.61547c0,155.99086 -66.33272,249.58538 -147.82721,249.58538c-81.49449,0 -147.82721,-93.59452 -147.82721,-249.58538" fill="none" stroke="#ffffff" stroke-width="15"/><path d="M345.72568,66.02585c0,122.1504 -47.76713,195.44065 -106.45247,195.44065c-58.68534,0 -106.45247,-73.29024 -106.45247,-195.44065" fill="none" stroke="#ffffff" stroke-width="15"/><path d="M307.81854,84.30663c0,88.30995 -30.80597,141.29592 -68.65332,141.29592c-37.84734,0 -68.65332,-52.98597 -68.65332,-141.29592" fill="none" stroke="#ffffff" stroke-width="15"/><path d="M269.91458,104.63061c0,46.16901 -13.7708,73.87041 -30.68921,73.87041c-16.91841,0 -30.68921,-27.7014 -30.68921,-73.87041" fill="none" stroke="#ffffff" stroke-width="15"/><path d="M113.0522,375.33553v-15.22088h249.69988v15.22088z" fill="#ffffff" stroke="none" stroke-width="0"/></g></g></svg>